<svg width="97" height="63" viewBox="0 0 97 63" fill="none" xmlns="http://www.w3.org/2000/svg">
<g filter="url(#filter0_d_1_918)">
<path d="M64.5679 -16.5986V-1.2373L52.7817 -5.24461C46.2993 -7.38184 40.2098 -9.25191 39.0311 -9.25191C34.5131 -9.25191 37.6561 -5.11103 46.1029 -0.0351105C52.1924 3.57147 54.3532 5.57512 52.5853 5.97585C51.0138 6.37658 39.424 8.51381 26.4592 10.651C2.29751 14.6583 -2.61341 16.3948 1.11889 18.9328C2.49394 19.8678 11.9229 19.4671 32.9416 17.3299C49.4423 15.727 63.3893 14.7919 63.9786 15.1927C64.5679 15.727 61.2285 20.4022 56.7104 25.7452C51.996 31.0883 48.0672 35.8971 47.6744 36.2978C47.2815 36.8321 48.2637 37.9007 49.6387 38.7022C51.996 40.038 53.9603 39.3701 60.2463 35.6299C64.5679 32.9584 68.8895 30.8212 69.8717 30.8212C70.8539 30.8212 72.8182 34.8285 74.3897 39.7708C77.7292 51.2584 80.0864 54.865 84.408 54.865C89.7118 54.865 90.694 50.7241 89.1225 35.3628C88.3367 27.6153 88.3367 21.4708 89.3189 21.4708C90.3011 21.4708 98.1586 23.608 106.802 26.146C123.892 31.2219 129.392 31.8898 129.392 28.9511C129.392 26.2795 126.249 24.4095 111.123 17.3299C103.855 14.124 97.9621 11.0518 97.9621 10.651C97.9621 10.2503 107.98 7.9795 120.159 5.57512C141.964 1.30066 151 -1.50446 151 -3.90884C151 -5.91249 138.624 -5.51176 118.981 -3.10738C109.552 -1.90518 101.105 -1.2373 100.516 -1.77161C99.9265 -2.17234 101.302 -5.64534 103.659 -9.38549C112.498 -23.9454 106.998 -25.2811 93.2476 -11.7899C88.1403 -6.58038 83.0329 -2.84023 82.2472 -3.50811C81.4615 -4.04242 79.3006 -9.38549 77.3363 -15.2629C73.4075 -27.8191 70.8539 -31.96 67.1216 -31.96C65.1572 -31.96 64.5679 -28.487 64.5679 -16.5986Z" fill="#F3ABCB"/>
<path d="M65.5679 -1.2373V0.15892L64.246 -0.290527L52.4686 -4.2949C52.4671 -4.29538 52.4656 -4.29587 52.4641 -4.29636C49.2288 -5.36302 46.0984 -6.36072 43.6335 -7.09091C42.3995 -7.45647 41.341 -7.75236 40.5236 -7.95597C39.6573 -8.17175 39.1801 -8.25191 39.0311 -8.25191C38.5288 -8.25191 38.216 -8.19247 38.041 -8.12719C38.0134 -8.11687 37.9915 -8.10738 37.9745 -8.09915C37.9796 -8.07334 37.9884 -8.03868 38.0035 -7.99389C38.0675 -7.80419 38.2165 -7.52465 38.4996 -7.15443C39.6542 -5.64446 42.4102 -3.42106 46.6153 -0.893826C49.6585 0.908623 51.8041 2.35763 52.9706 3.43929C53.2671 3.71428 53.5245 3.9873 53.7224 4.2564C53.9108 4.51266 54.1002 4.83844 54.1615 5.21349C54.2323 5.64676 54.1205 6.10136 53.7782 6.45051C53.4905 6.74394 53.1212 6.87825 52.8199 6.948C51.1499 7.36971 39.534 9.50918 26.6219 11.6377C14.52 13.6449 7.33567 15.0694 3.64318 16.2922C2.72619 16.5959 2.0654 16.8743 1.61338 17.1268C1.26735 17.32 1.10392 17.4652 1.03271 17.5446C1.11409 17.6584 1.30219 17.8482 1.6812 18.1059C1.67862 18.1041 1.6797 18.1046 1.68518 18.1069C1.71259 18.1184 1.84991 18.176 2.18917 18.2346C2.56079 18.2988 3.077 18.3489 3.75855 18.3783C5.11911 18.4369 7.04816 18.4093 9.61537 18.2846C14.7446 18.0355 22.3352 17.4032 32.8405 16.335L32.8449 16.3346C41.1025 15.5324 48.7241 14.897 54.3587 14.5122C57.1747 14.3199 59.5019 14.1896 61.1667 14.1327C61.997 14.1043 62.6759 14.0937 63.1731 14.1039C63.4195 14.109 63.6402 14.1194 63.8202 14.1386C63.9092 14.1481 64.0078 14.1617 64.104 14.1833C64.1688 14.1979 64.3576 14.2411 64.5409 14.3657L64.5986 14.405L64.6503 14.4518C64.9242 14.7002 65.0147 15.0119 65.0383 15.2362C65.061 15.453 65.0303 15.6532 64.9952 15.8053C64.9245 16.1111 64.7828 16.4424 64.6199 16.7655C64.287 17.4261 63.7517 18.2734 63.0803 19.2372C61.7299 21.1758 59.7439 23.7065 57.474 26.3909L57.4672 26.399L57.4603 26.4069C55.1099 29.0706 52.9544 31.6024 51.336 33.5199C50.7966 34.159 50.3181 34.7284 49.9112 35.2126C49.707 35.4556 49.5209 35.6771 49.354 35.8753C49.087 36.1925 48.8582 36.4636 48.6852 36.6646C48.7057 36.6918 48.7293 36.7212 48.7561 36.7529C49.0281 37.0734 49.5152 37.4721 50.137 37.8352C50.6375 38.1181 51.0701 38.2691 51.5148 38.3175C51.9642 38.3664 52.4905 38.3174 53.1841 38.111C54.6156 37.6852 56.5712 36.6528 59.7278 34.7748C61.9089 33.4268 64.0935 32.2111 65.8655 31.3286C66.7512 30.8875 67.546 30.5235 68.1926 30.2672C68.5153 30.1393 68.8139 30.0331 69.0761 29.9574C69.3185 29.8875 69.6037 29.8212 69.8717 29.8212C70.3235 29.8212 70.6802 30.0419 70.9036 30.2186C71.1444 30.409 71.3652 30.6556 71.5649 30.9165C71.9671 31.4417 72.3865 32.1606 72.804 32.9952C73.6441 34.6742 74.5463 36.963 75.3427 39.4678L75.3465 39.4797L75.35 39.4917C77.0205 45.2382 78.4105 48.8768 79.8645 51.0739C80.5808 52.1564 81.2825 52.8408 81.9957 53.2598C82.6992 53.6731 83.4759 53.865 84.408 53.865C85.6139 53.865 86.4196 53.6286 86.9919 53.1865C87.5622 52.7461 88.0464 51.9884 88.3713 50.6401C89.0366 47.8787 88.9166 43.176 88.1277 35.4645L88.1276 35.4637C87.7327 31.5699 87.5327 28.0569 87.5578 25.5017C87.5702 24.2323 87.6383 23.1553 87.7793 22.3743C87.8481 21.9933 87.9461 21.6111 88.1036 21.2992C88.2341 21.0408 88.5954 20.4708 89.3189 20.4708C89.5528 20.4708 89.8752 20.525 90.1887 20.586C90.5336 20.6531 90.9697 20.75 91.4808 20.8715C92.5043 21.1148 93.8594 21.4641 95.4471 21.8909C98.6243 22.7451 102.757 23.9161 107.084 25.1865L107.086 25.1873C115.641 27.7281 121.212 29.1391 124.628 29.5616C126.361 29.7758 127.386 29.7128 127.938 29.5215C128.189 29.4344 128.279 29.342 128.313 29.2949C128.345 29.2504 128.392 29.1594 128.392 28.9511C128.392 28.1788 128.038 27.3035 125.397 25.6396C122.785 23.9942 118.284 21.7858 110.71 18.2403C107.065 16.6325 103.761 15.0565 101.362 13.8288C100.163 13.2154 99.1786 12.6829 98.4869 12.2733C98.1445 12.0705 97.8529 11.8855 97.638 11.7279C97.5341 11.6516 97.419 11.5608 97.3202 11.4611C97.2716 11.4122 97.202 11.3364 97.1384 11.2377C97.0875 11.1586 96.9621 10.9473 96.9621 10.651C96.9621 10.3803 97.0672 10.1796 97.1418 10.0696C97.2172 9.95851 97.2992 9.88311 97.3507 9.84015C97.4528 9.75493 97.5568 9.69776 97.6206 9.66497C97.7578 9.59443 97.9221 9.53054 98.0834 9.47357C98.4169 9.3558 98.8845 9.21709 99.4556 9.06195C100.605 8.74975 102.254 8.34962 104.271 7.88948C108.311 6.96831 113.87 5.79745 119.966 4.59406L119.967 4.5938C130.866 2.45728 138.531 0.695675 143.462 -0.823788C145.935 -1.58585 147.664 -2.27064 148.757 -2.88538C149.305 -3.19347 149.643 -3.45642 149.833 -3.66303C149.845 -3.67599 149.856 -3.68844 149.866 -3.70037C149.607 -3.7961 149.203 -3.8947 148.62 -3.97679C147.237 -4.17149 145.144 -4.23623 142.384 -4.16149C136.882 -4.01249 128.914 -3.31569 119.105 -2.1151C114.38 -1.51267 109.894 -1.04315 106.508 -0.791065C104.817 -0.665199 103.385 -0.592339 102.33 -0.585873C101.805 -0.582661 101.35 -0.595585 100.992 -0.631237C100.815 -0.648899 100.636 -0.674576 100.474 -0.715282C100.363 -0.743095 100.122 -0.808422 99.9045 -0.979744C99.5056 -1.27978 99.4139 -1.7231 99.39 -1.95998C99.3621 -2.23674 99.3946 -2.52654 99.444 -2.78931C99.5449 -3.32518 99.7633 -3.98469 100.056 -4.70365C100.647 -6.15299 101.608 -8.0057 102.808 -9.91125C105.001 -13.5234 106.252 -16.2353 106.727 -18.0536C106.968 -18.9758 106.978 -19.5538 106.902 -19.8687C106.868 -20.0113 106.825 -20.0644 106.811 -20.0796C106.801 -20.0905 106.776 -20.1146 106.696 -20.1334C106.492 -20.1812 106.049 -20.1636 105.276 -19.8644C104.531 -19.5758 103.595 -19.0712 102.474 -18.3219C100.236 -16.8261 97.3659 -14.4289 93.9548 -11.0827C91.3747 -8.45172 88.7853 -6.18134 86.7249 -4.64357C85.6989 -3.87782 84.7742 -3.2712 84.0303 -2.89527C83.6638 -2.71006 83.2925 -2.55563 82.947 -2.48105C82.6733 -2.42198 82.1117 -2.34507 81.6425 -2.71121C81.3896 -2.89724 81.1934 -3.16786 81.0572 -3.37367C80.8911 -3.62476 80.7158 -3.9357 80.5355 -4.28605C80.1736 -4.98918 79.7564 -5.91947 79.3096 -6.99963C78.4144 -9.16409 77.3751 -11.992 76.3878 -14.9459L76.3848 -14.955L76.3819 -14.9643C74.4177 -21.2419 72.8274 -25.309 71.3026 -27.7975C69.7964 -30.2556 68.4941 -30.96 67.1216 -30.96C67.0094 -30.96 66.903 -30.9498 66.733 -30.6876C66.5161 -30.3531 66.2849 -29.7138 66.0945 -28.5728C65.7173 -26.3128 65.5679 -22.5534 65.5679 -16.5986V-1.2373ZM37.9215 -8.06707C37.9217 -8.06704 37.9233 -8.06826 37.9258 -8.07092C37.9226 -8.06845 37.9213 -8.0671 37.9215 -8.06707ZM37.9679 -8.15687C37.9682 -8.1592 37.9683 -8.1605 37.9682 -8.16065C37.9682 -8.16082 37.968 -8.1596 37.9679 -8.15687ZM150.133 -3.57103C150.134 -3.57095 150.13 -3.57471 150.119 -3.58201C150.127 -3.57468 150.132 -3.57111 150.133 -3.57103Z" stroke="black" stroke-width="2"/>
</g>
<defs>
<filter id="filter0_d_1_918" x="0" y="-31.96" width="151" height="94.5895" filterUnits="userSpaceOnUse" color-interpolation-filters="sRGB">
<feFlood flood-opacity="0" result="BackgroundImageFix"/>
<feColorMatrix in="SourceAlpha" type="matrix" values="0 0 0 0 0 0 0 0 0 0 0 0 0 0 0 0 0 0 127 0" result="hardAlpha"/>
<feOffset dy="7.76457"/>
<feComposite in2="hardAlpha" operator="out"/>
<feColorMatrix type="matrix" values="0 0 0 0 0.745098 0 0 0 0 0.74902 0 0 0 0 0.705882 0 0 0 1 0"/>
<feBlend mode="normal" in2="BackgroundImageFix" result="effect1_dropShadow_1_918"/>
<feBlend mode="normal" in="SourceGraphic" in2="effect1_dropShadow_1_918" result="shape"/>
</filter>
</defs>
</svg>
