<svg width="51" height="52" viewBox="0 0 51 52" fill="none" xmlns="http://www.w3.org/2000/svg">
<g filter="url(#filter0_d_1_1240)">
<rect x="0.539887" y="0.539887" width="48.5958" height="48.5958" rx="24.2979" fill="#FFDC58" stroke="black" stroke-width="1.07977"/>
<path fill-rule="evenodd" clip-rule="evenodd" d="M24.1869 39.7172C24.1866 39.7123 24.1826 39.7085 24.1777 39.7083C23.5458 39.6926 22.899 39.6309 22.2624 39.4525C22.0298 39.3873 21.7922 39.3232 21.5687 39.2152C21.175 39.0279 20.8091 38.76 20.5211 38.4271C20.3758 38.2582 20.2513 38.0891 20.1398 37.8887C20.023 37.6883 19.9549 37.4557 19.9277 37.2224C19.9002 37.0147 19.9223 36.8009 19.9733 36.5991C20.0287 36.3967 20.1274 36.2125 20.2425 36.044C20.5517 35.6197 21.0756 35.3656 21.5646 35.4123C21.718 35.422 21.6962 35.5012 21.5979 35.6214C21.4928 35.7278 21.3512 35.9446 21.1937 36.0634C21.0424 36.1662 20.9548 36.3209 20.8571 36.438C20.7668 36.5659 20.7087 36.7062 20.6829 36.8489C20.6443 36.9892 20.6372 37.1399 20.6671 37.2966C20.698 37.4527 20.7755 37.6081 20.8809 37.7917C21.0091 37.9954 21.1857 38.1726 21.3894 38.3173C21.5969 38.4583 21.8285 38.5677 22.0671 38.6634C22.5947 38.8725 23.1882 38.9638 23.7876 39.0017C24.1578 39.0228 24.5338 39.0282 24.9036 39.0071C25.4652 38.9742 26.0314 38.9043 26.5634 38.7395C26.9803 38.6231 27.3663 38.4452 27.7345 38.2425C27.8164 38.1985 27.8926 38.1495 27.9725 38.1022C28.2692 37.9263 28.3806 37.8944 28.5155 37.9427C28.5457 37.9535 28.5803 37.9595 28.6045 37.9733C28.6807 38.0109 28.6243 38.1817 28.4192 38.3764C28.1134 38.6603 27.7563 38.9121 27.3676 39.1141C27.1729 39.2135 26.9729 39.3101 26.7648 39.384C26.5547 39.4501 26.3405 39.5058 26.1247 39.5495C25.4876 39.6838 24.8358 39.727 24.1962 39.726C24.1912 39.726 24.1872 39.7221 24.1869 39.7172Z" fill="#231F20"/>
<path fill-rule="evenodd" clip-rule="evenodd" d="M25.9186 39.9558C25.9177 39.9533 25.9151 39.952 25.9126 39.9526C25.57 40.0433 25.2214 40.1081 24.8719 40.1616C24.7426 40.179 24.6161 40.1958 24.4866 40.2132C24.0301 40.2461 23.5709 40.2361 23.1185 40.1726C22.9171 40.1461 22.7164 40.1105 22.5183 40.0686C22.2673 40.0051 22.0034 39.9407 21.7893 39.7756C21.7212 39.7272 21.7752 39.6651 21.8719 39.6269C21.9709 39.5869 22.0984 39.5772 22.226 39.6178C22.6717 39.785 23.1604 39.8601 23.6615 39.9041C23.9629 39.9269 24.2781 39.8937 24.5846 39.8494C24.9236 39.8108 25.2599 39.741 25.5932 39.6578C25.7986 39.6088 26.0003 39.5413 26.2024 39.4789L26.6575 39.3174C26.8062 39.257 26.9539 39.1929 27.0996 39.1268C27.3224 39.0167 27.5295 38.8864 27.7453 38.7706L27.8846 38.6891C28.0625 38.5928 28.133 38.5854 28.2021 38.6146C28.2179 38.6216 28.2364 38.6263 28.2485 38.635C28.2884 38.6629 28.2384 38.7401 28.1226 38.8415C27.7812 39.1456 27.3694 39.396 26.9301 39.5916C26.6089 39.7454 26.2694 39.8638 25.9246 39.9589C25.922 39.9596 25.9194 39.9583 25.9186 39.9558Z" fill="#231F20"/>
<path fill-rule="evenodd" clip-rule="evenodd" d="M26.5847 42.1125C26.5873 42.1146 26.591 42.1145 26.5935 42.1123C26.7007 42.0196 26.7927 41.889 26.8771 41.7522C26.91 41.7029 26.9221 41.6401 26.953 41.5878C27.0584 41.3974 27.1514 41.1917 27.2437 40.9789C27.288 40.8863 27.3202 40.7872 27.3564 40.6886C27.4054 40.5634 27.437 40.421 27.578 40.3187C27.6182 40.2871 27.6646 40.3502 27.7069 40.4268C27.7471 40.5076 27.7961 40.5748 27.7834 40.6399C27.7223 40.85 27.6958 41.1225 27.5444 41.3585C27.4625 41.5022 27.4289 41.673 27.3558 41.8301C27.2782 42.0033 27.1742 42.1701 27.0577 42.3285C26.9738 42.4198 26.9003 42.5168 26.7983 42.5927C26.7253 42.6521 26.6468 42.7045 26.564 42.7492L26.5623 42.7501C26.4818 42.8018 26.3911 42.828 26.3032 42.8612C26.2357 42.8924 26.1683 42.9136 26.0981 42.933C26.0293 42.9511 25.9568 42.984 25.8856 42.9897C25.8544 42.9938 25.8235 42.9944 25.7917 42.9918C25.6739 42.977 25.6393 42.9414 25.6306 42.8229C25.6282 42.7978 25.6245 42.7733 25.6245 42.7504C25.6248 42.6786 25.6782 42.5883 25.7467 42.5558C25.9565 42.4517 26.1125 42.4175 26.2653 42.343C26.3657 42.2769 26.4808 42.2221 26.575 42.1135C26.5775 42.1106 26.5818 42.1102 26.5847 42.1125Z" fill="#231F20"/>
<path fill-rule="evenodd" clip-rule="evenodd" d="M21.307 36.1976C21.3042 36.1936 21.299 36.1921 21.2945 36.194C21.2119 36.228 21.1153 36.266 21.0317 36.3307C21.0008 36.3552 20.9823 36.3902 20.9514 36.4153C20.8387 36.5036 20.7276 36.607 20.6457 36.7292C20.6155 36.7829 20.5967 36.8463 20.6003 36.9017C20.5983 36.9806 20.6265 37.0228 20.5681 37.0836C20.5473 37.1041 20.4178 37.1648 20.2731 37.1803C20.1335 37.2038 19.9509 37.137 19.9364 37.0443C19.8985 36.8785 19.9311 36.7335 19.9818 36.6127C20.0308 36.4888 20.1066 36.3871 20.1979 36.3012C20.3093 36.2029 20.3587 36.0676 20.456 35.9632C20.5641 35.8511 20.6836 35.7507 20.8199 35.6685C20.8997 35.6151 20.9944 35.5789 21.0837 35.539C21.224 35.4804 21.3775 35.4548 21.529 35.4433C21.5308 35.4432 21.5326 35.4431 21.5345 35.443C21.5959 35.442 21.6586 35.4272 21.7227 35.4245C21.7855 35.4275 21.852 35.4309 21.9178 35.4416C21.948 35.4436 21.9701 35.4601 21.9943 35.4752C22.0782 35.5416 22.0802 35.5997 22.0201 35.7195C22.0064 35.7471 21.9936 35.7742 21.9782 35.7998C21.9265 35.8837 21.849 35.9434 21.7889 35.9756C21.6023 36.081 21.5925 36.1119 21.5136 36.1304C21.4644 36.1414 21.3937 36.163 21.3204 36.2009C21.3158 36.2033 21.31 36.202 21.307 36.1976Z" fill="#231F20"/>
<path fill-rule="evenodd" clip-rule="evenodd" d="M15.5427 30.5536C15.5445 30.5516 15.5445 30.5486 15.5427 30.5466C14.7397 29.6151 14.0162 28.6063 13.4376 27.5135C13.3258 27.3172 13.2288 27.1131 13.1335 26.908C13.0324 26.7056 12.9415 26.4992 12.8639 26.2864C12.2719 24.8062 12.0299 23.1901 12.148 21.6102C12.1671 21.2591 12.2255 20.9103 12.2678 20.5616C12.343 20.2186 12.385 19.8682 12.484 19.5339C12.6817 18.6649 13.0193 17.8009 13.5426 17.0712C13.7071 16.8447 13.7219 16.9031 13.642 17.1276C13.5587 17.3522 13.4191 17.7586 13.2338 18.2198C13.1519 18.4249 13.0794 18.634 13.0146 18.8448C12.9492 19.0546 12.9049 19.2754 12.8425 19.4882C12.7814 19.7024 12.7263 19.9175 12.6897 20.137C12.6515 20.3559 12.5937 20.5717 12.5706 20.7929C12.4303 21.6716 12.4199 22.5684 12.5055 23.4596C12.6072 24.5286 12.9401 25.6124 13.4047 26.6086C13.9098 27.7085 14.5569 28.7473 15.3178 29.7002C15.78 30.2913 16.2798 30.8549 16.8054 31.3926C17.5979 32.2115 18.4481 32.9835 19.3147 33.7149C19.989 34.2838 20.6751 34.8104 21.3534 35.3636C21.5021 35.4864 21.6518 35.6012 21.7968 35.7318C22.3396 36.2084 22.4862 36.3937 22.5399 36.5592C22.5527 36.5964 22.5742 36.6407 22.5772 36.6662C22.5859 36.7535 22.3436 36.5857 21.9385 36.2561C20.7285 35.2871 19.4184 34.2835 18.1732 33.1829C17.2506 32.3656 16.3559 31.5011 15.5427 30.5607C15.541 30.5586 15.541 30.5556 15.5427 30.5536Z" fill="#231F20"/>
<path fill-rule="evenodd" clip-rule="evenodd" d="M13.9343 16.434C13.9398 16.4364 13.9463 16.4347 13.9499 16.4299C14.4769 15.7274 15.0969 15.1092 15.7733 14.5666C16.4681 14.0436 17.2119 13.5932 17.9976 13.2324C19.5745 12.5316 21.2957 12.1496 23.029 12.204C23.6613 12.2234 24.2923 12.2963 24.9025 12.4174C25.21 12.4782 25.5164 12.5514 25.8202 12.641C26.124 12.7289 26.421 12.8575 26.7197 12.9672C27.7549 13.4197 28.6759 14.1165 29.4103 14.9579C30.148 15.7991 30.7042 16.7785 31.0855 17.8092C31.8601 19.8728 32.0088 22.1129 31.7202 24.253C31.6047 25.2065 31.402 26.1474 31.1516 27.07C30.9096 27.9964 30.5917 28.8966 30.2541 29.7804C29.8187 30.9162 29.2965 32.0191 28.7141 33.0868C28.1365 34.1572 27.48 35.1826 26.7674 36.161C26.3206 36.7702 26.2985 36.6286 26.5509 36.0338C26.6801 35.7388 26.8627 35.3212 27.096 34.8288C27.3209 34.3314 27.5995 33.7611 27.9177 33.1533C28.4849 32.0762 28.9706 30.9622 29.4354 29.8452C29.8906 28.7234 30.2793 27.5762 30.5726 26.4068C31.1647 24.0741 31.3476 21.6225 30.7837 19.2834C30.6119 18.5883 30.3705 17.9032 30.0524 17.2521C29.7328 16.6013 29.319 15.9964 28.836 15.4577C28.3513 14.921 27.7918 14.4471 27.1598 14.0967C26.5287 13.7456 25.8585 13.4767 25.1442 13.3113C22.0193 12.5292 18.536 13.3425 16.0331 15.3973C15.2682 16.0303 14.6033 16.7875 14.1152 17.6478C14.0058 17.869 13.8883 18.0872 13.7839 18.3104L13.5272 19.0045C13.399 19.4878 13.2654 19.9718 13.2003 20.4686L13.1536 20.7488L13.1301 21.0321L13.0851 21.599L13.0888 22.1679L13.0918 22.4522L13.1184 22.7359C13.1637 23.4951 13.3389 24.2412 13.5544 24.9706C13.7745 25.7009 14.0924 26.3988 14.4381 27.0791C14.7999 27.7521 15.2101 28.3982 15.6562 29.0175C17.0585 30.94 18.7851 32.5374 20.5553 34.1012C20.9466 34.4459 21.3366 34.7751 21.7263 35.1336C23.174 36.4477 23.5673 37.0246 23.6429 37.4918C23.6593 37.5986 23.6771 37.7325 23.6684 37.7933C23.6596 37.846 23.6268 37.8409 23.5704 37.7936C23.5113 37.7459 23.4499 37.6536 23.3243 37.5348C23.0938 37.2938 22.7104 36.9186 22.1798 36.453C20.5895 35.0879 18.8784 33.6997 17.3133 32.0937C15.7512 30.4933 14.2891 28.6731 13.3281 26.5344C12.97 25.7436 12.7018 24.9068 12.5159 24.0499C12.3262 23.1917 12.2779 22.3039 12.3051 21.4248C12.3376 20.5424 12.5129 19.6758 12.7414 18.8303C13.0065 17.9744 13.4095 17.1665 13.9185 16.4384C13.922 16.4334 13.9286 16.4315 13.9343 16.434Z" fill="#231F20"/>
<path fill-rule="evenodd" clip-rule="evenodd" d="M22.6225 39.1603C22.622 39.1653 22.6254 39.1698 22.6304 39.1707C23.4834 39.3257 24.3902 39.2995 25.2793 39.1547C25.6025 39.0979 25.9301 39.008 26.2436 38.9392C26.7709 38.8026 27.3083 38.5515 27.7986 38.2605C28.288 37.9648 28.7445 37.6026 29.0627 37.1626C29.3309 36.7659 29.3936 36.2903 29.1557 35.9006C29.0076 35.6532 28.7593 35.4491 28.4914 35.2816C28.2179 35.1205 27.9262 34.9739 27.616 34.8634C27.4234 34.7987 27.4523 34.7356 27.6506 34.6792C27.8419 34.6355 28.2356 34.5741 28.6367 34.753C28.9868 34.9094 29.3315 35.1215 29.6108 35.4626C29.6818 35.5444 29.7389 35.6382 29.7882 35.7376C29.8931 35.949 29.9599 36.1792 29.9787 36.4145C29.9817 36.5313 29.9615 36.6467 29.9495 36.7625C29.8608 37.2163 29.6249 37.5765 29.3691 37.8748C29.1113 38.1773 28.8079 38.4052 28.4958 38.6109C28.1212 38.8539 27.7329 39.0731 27.3264 39.2684C27.123 39.3658 26.9142 39.4554 26.6977 39.5329C26.5906 39.5735 26.4745 39.6031 26.3638 39.6377L26.0405 39.7081C25.098 39.9179 24.121 40.0277 23.1439 39.9454C22.5434 39.8927 21.946 39.7669 21.3771 39.5467C20.9474 39.3752 20.5423 39.1322 20.1859 38.8241C19.8344 38.5106 19.5471 38.1061 19.4051 37.6369C19.3024 37.2734 19.287 36.8646 19.4109 36.4933C19.5384 36.1234 19.777 35.8049 20.0617 35.5606C20.1872 35.4522 20.3144 35.3528 20.4571 35.2696C20.7202 35.1142 20.9179 35.0682 21.0569 35.0507C21.1985 35.0396 21.2898 35.0719 21.3717 35.1393C21.4089 35.1692 21.4533 35.1957 21.4774 35.2273C21.5586 35.3364 21.3697 35.4934 21.0585 35.6898C20.595 35.9751 20.2053 36.3701 20.0989 36.7917C20.0345 37.0018 20.0462 37.2093 20.0956 37.4284C20.1553 37.6476 20.2839 37.8614 20.4409 38.0608C20.939 38.6492 21.764 39.0032 22.6145 39.1498C22.6195 39.1506 22.6229 39.1552 22.6225 39.1603Z" fill="#231F20"/>
<path fill-rule="evenodd" clip-rule="evenodd" d="M21.7294 37.573C21.7279 37.5773 21.73 37.582 21.7343 37.5838C22.2069 37.7807 22.7322 37.9096 23.2694 37.9727C23.4668 37.9968 23.6665 37.9935 23.8655 38.0012C24.5684 38.0321 25.287 37.9801 25.9754 37.8045C26.2798 37.726 26.5792 37.6182 26.8534 37.4773C27.2062 37.2927 27.5133 37.0544 27.7859 36.7895C27.8725 36.7073 27.9369 36.7543 27.949 36.9C27.9684 37.048 27.9074 37.3054 27.7066 37.488C26.9944 38.1079 26.113 38.3969 25.2356 38.4829C24.71 38.5329 24.1679 38.6134 23.6272 38.598C23.0348 38.5802 22.439 38.503 21.8654 38.3181C21.5133 38.2046 21.1689 38.0529 20.8511 37.8482C20.6118 37.6914 20.3882 37.5011 20.2043 37.2722C20.1184 37.153 20.0321 37.0342 19.968 36.901C19.8945 36.7815 19.8408 36.5912 19.8441 36.4294C19.8478 36.1666 19.9482 35.9333 20.0767 35.7386C20.2073 35.5433 20.3711 35.3781 20.5601 35.2439C20.642 35.1828 20.7272 35.1288 20.8212 35.0828C21.1797 34.9233 21.3435 34.9851 21.424 35.1267C21.4432 35.1596 21.4656 35.1912 21.475 35.2234C21.5002 35.3325 21.3841 35.4322 21.2116 35.5272C20.9484 35.6658 20.7007 35.8927 20.5661 36.1276C20.4987 36.2438 20.4691 36.3572 20.4758 36.4321C20.4768 36.471 20.4886 36.5009 20.5037 36.5324C20.5218 36.5714 20.5722 36.6523 20.6027 36.7113C20.8374 37.0779 21.2484 37.3708 21.7245 37.5621C21.7288 37.5639 21.731 37.5686 21.7294 37.573Z" fill="#231F20"/>
<path fill-rule="evenodd" clip-rule="evenodd" d="M23.6577 40.644C23.6571 40.6491 23.6603 40.6538 23.6653 40.655C24.1056 40.7572 24.5841 40.7725 25.0612 40.7294C25.2374 40.7174 25.4086 40.6684 25.5838 40.6395C26.2038 40.5385 26.8163 40.3455 27.4024 40.0887C27.6595 39.9692 27.9055 39.8225 28.1284 39.6557C28.4227 39.4453 28.657 39.1845 28.899 38.9421C28.9806 38.869 29.0534 38.9139 29.088 39.0532C29.1041 39.122 29.1178 39.2227 29.0974 39.3274C29.0732 39.4244 29.0266 39.5315 28.952 39.6275C28.3932 40.2505 27.6977 40.6969 26.9274 40.9322C26.4659 41.0644 26.0064 41.2567 25.5197 41.341C24.9884 41.4373 24.4413 41.4712 23.8952 41.4165C23.5602 41.3809 23.2229 41.3014 22.9071 41.1889C22.4281 41.0131 21.9756 40.7432 21.6004 40.3914C21.3074 40.1223 21.0378 39.8195 20.8442 39.4641C20.8046 39.3848 20.7656 39.307 20.7324 39.2241C20.6354 38.9076 20.6908 38.7864 20.8237 38.6884C20.8543 38.6659 20.8818 38.6397 20.911 38.6249C21.0046 38.5756 21.1469 38.6699 21.2705 38.8421C21.452 39.0989 21.6101 39.3409 21.7904 39.5627C21.9713 39.7839 22.1844 39.9746 22.4261 40.136C22.7787 40.3727 23.2158 40.5461 23.6498 40.633C23.6549 40.634 23.6584 40.6388 23.6577 40.644Z" fill="#231F20"/>
<path fill-rule="evenodd" clip-rule="evenodd" d="M21.8006 20.0535C21.8051 20.0521 21.808 20.0478 21.8077 20.0431C21.7962 19.8775 21.7953 19.7077 21.8046 19.5339L21.8244 19.2617L21.857 19.0654C21.8757 18.9945 21.9013 18.9261 21.9231 18.8563C22.0164 18.5757 22.2346 18.3931 22.493 18.3397C22.7541 18.288 23.0263 18.3776 23.2358 18.5683C23.2865 18.6176 23.3395 18.6683 23.3815 18.7243C23.4281 18.7807 23.4724 18.8354 23.4915 18.872C23.5449 18.9553 23.5872 19.0372 23.6275 19.1191C23.7074 19.2822 23.7688 19.4433 23.8238 19.6037C23.9276 19.9273 24.0145 20.2629 24.0538 20.5959C24.2192 21.9281 24.0188 23.2713 23.4358 24.478C23.3288 24.6978 23.2036 24.9106 23.0653 25.1167C22.9951 25.2204 22.9011 25.3252 22.8186 25.4279C22.7202 25.5222 22.6202 25.6185 22.5078 25.6997C22.0483 26.0327 21.4327 26.1203 20.9282 26.0008C20.4748 25.9078 20.0727 25.7155 19.7078 25.4859C19.3423 25.2537 19.0137 24.9835 18.7163 24.6693C18.4142 24.3451 18.1796 23.9893 17.9823 23.6113C17.7872 23.2331 17.6268 22.8333 17.5463 22.4007C17.467 21.9737 17.4526 21.4941 17.6617 21.05C17.7607 20.8342 17.897 20.6409 18.095 20.4778C18.289 20.3143 18.5602 20.2196 18.8177 20.2277C19.3399 20.2452 19.7333 20.5597 20.03 20.8466C20.3365 21.145 20.5899 21.4834 20.8114 21.8348C21.5945 23.0881 22.0322 24.4938 22.4477 25.8434C22.7192 26.7151 22.9575 27.6102 23.1092 28.5245C23.1804 28.9823 23.2351 29.4442 23.2492 29.9081C23.2633 30.3723 23.2395 30.8358 23.1958 31.2949C23.126 31.8676 23.0414 31.7759 22.9525 31.2943C22.9035 31.0372 22.8391 30.7035 22.7649 30.3162C22.6763 29.9164 22.5873 29.4559 22.5024 28.9545C22.3507 28.065 22.0973 27.1944 21.8257 26.3177C21.5612 25.4309 21.2971 24.5498 20.9762 23.7107C20.6547 22.8739 20.2636 22.0533 19.7001 21.4169C19.5611 21.2588 19.4041 21.1084 19.2567 21.0071C19.1037 20.906 18.9402 20.8436 18.8016 20.8439C18.6626 20.8403 18.5414 20.8899 18.424 21.0034C18.3065 21.1175 18.2068 21.2883 18.1565 21.4538C18.0259 21.873 18.1266 22.4111 18.3246 22.8957C18.5216 23.3844 18.8163 23.8614 19.1751 24.2367C19.5504 24.6166 20.0018 24.9435 20.4801 25.1603C20.9561 25.3664 21.4817 25.4644 21.8929 25.2721C22.1201 25.1734 22.3154 24.9996 22.4769 24.7814C22.641 24.5441 22.786 24.2857 22.9062 24.0145C23.1398 23.4687 23.2955 22.88 23.3617 22.2819C23.4338 21.6837 23.4187 21.0752 23.313 20.4902C23.2532 20.2005 23.1744 19.9149 23.0626 19.6417C23.0072 19.5071 22.9444 19.3782 22.8736 19.2674C22.8149 19.1751 22.785 19.1399 22.7162 19.1006C22.635 19.0546 22.5329 19.1033 22.5007 19.1875C22.4829 19.2271 22.4678 19.2721 22.4615 19.3127C22.4467 19.3799 22.4302 19.4775 22.4272 19.5631C22.4098 19.9209 22.4504 20.2972 22.5202 20.6637C22.591 21.0306 22.6924 21.3944 22.834 21.7354C22.9723 22.0677 23.1606 22.4161 23.4013 22.5826C23.6003 22.7044 23.846 22.7642 24.0819 22.7195C24.3209 22.6793 24.5555 22.551 24.7613 22.3822C25.1704 22.0409 25.4984 21.5532 25.6555 21.0463C25.733 20.8064 25.7353 20.5305 25.7008 20.269C25.6632 20.0115 25.5692 19.7554 25.4151 19.6242C25.2557 19.492 25.0966 19.4936 24.9284 19.6524C24.7593 19.8145 24.6213 20.0595 24.5173 20.3099C24.4314 20.5056 24.3813 20.705 24.332 20.9252C24.2766 21.1383 24.2397 21.3558 24.2041 21.573C24.14 22.008 24.1014 22.446 24.092 22.8843C24.0722 23.761 24.1387 24.6371 24.2907 25.5007C24.3578 25.8813 24.4414 26.2499 24.5364 26.6265C24.7096 27.3259 24.859 27.7754 24.9395 28.1006C25.0241 28.4245 25.0375 28.6266 25.013 28.8078C25.0016 28.8904 25.0003 28.9948 24.9795 29.0501C24.9258 29.2341 24.5102 28.7481 24.1377 27.7002C23.5983 26.1495 23.3284 24.4521 23.4023 22.7232C23.4254 22.2916 23.466 21.8576 23.5385 21.4253C23.5792 21.2101 23.6033 20.9913 23.6553 20.7761L23.7265 20.4482C23.758 20.3244 23.795 20.2129 23.8359 20.0991C23.9202 19.8739 24.0199 19.6524 24.1662 19.4285C24.3125 19.2151 24.5079 18.9522 24.9331 18.8109C25.1359 18.765 25.3614 18.7606 25.5524 18.8536C25.7541 18.9197 25.8978 19.0432 26.0149 19.1731C26.2472 19.4396 26.3341 19.7192 26.3942 19.9797C26.4684 20.3727 26.4778 20.7328 26.3781 21.1487C26.2734 21.5273 26.1072 21.8495 25.9058 22.1499C25.7024 22.448 25.4604 22.7215 25.1607 22.9531C24.8627 23.1804 24.4908 23.3751 24.0511 23.41C23.944 23.4257 23.8305 23.4066 23.7215 23.4016C23.6124 23.3878 23.5067 23.3532 23.4006 23.3257C23.3012 23.2854 23.2056 23.2378 23.1099 23.1908C23.0028 23.128 22.9102 23.0518 22.8327 22.976C22.5373 22.6675 22.3856 22.3463 22.2503 22.0268C21.9976 21.3869 21.8464 20.7427 21.7935 20.0639C21.7931 20.0592 21.7961 20.0549 21.8006 20.0535Z" fill="#231F20"/>
<path fill-rule="evenodd" clip-rule="evenodd" d="M35.1058 20.8618C35.098 20.9206 35.0205 20.8947 34.9 20.8236C34.8614 20.8011 34.7705 20.7074 34.7674 20.6843C34.7614 20.6393 34.7564 20.5947 34.759 20.5564C34.759 20.5332 34.9114 20.2899 34.9655 20.2043C35.0158 20.1207 35.0819 20.0533 35.1538 19.9929C35.2964 19.866 35.4491 19.7482 35.6106 19.6408C35.6465 19.6173 35.6868 19.6005 35.7297 19.5894C35.8794 19.5542 36.0083 19.488 36.1359 19.4108C36.1573 19.3984 36.1822 19.392 36.1943 19.3598C36.21 19.3014 36.5937 19.1494 36.6521 19.1564C36.792 19.1621 36.9256 19.1551 37.0616 19.1722C37.0807 19.1746 37.0985 19.1608 37.1203 19.1876C37.1703 19.2494 37.2066 19.2326 37.2465 19.2326C37.3012 19.2313 37.3569 19.2377 37.4127 19.2558C37.4402 19.2645 37.4694 19.3004 37.4969 19.3286C37.5217 19.3538 37.5154 19.4545 37.5087 19.4659C37.4885 19.4991 37.51 19.5444 37.5147 19.5857C37.5182 19.6144 37.5104 19.6414 37.4899 19.6617C37.4686 19.683 37.4373 19.7117 37.4044 19.741C37.3091 19.8255 37.1819 19.8944 37.0632 19.9408C36.9699 19.9778 36.8756 20.0221 36.8578 20.0358C36.8186 20.0624 36.7661 20.0449 36.7248 20.0681C36.7061 20.0787 36.6847 20.0911 36.6629 20.104C36.5585 20.1654 36.453 20.2688 36.3346 20.2439C36.3296 20.2428 36.3244 20.2415 36.3191 20.2399C36.3027 20.2355 36.2929 20.2446 36.2822 20.2513C36.1899 20.309 36.0842 20.3436 35.9818 20.3893C35.9304 20.4138 35.8865 20.45 35.8391 20.4812C35.8304 20.4869 35.8173 20.4859 35.8066 20.4886C35.7932 20.492 35.7781 20.493 35.7677 20.501C35.6582 20.5796 35.529 20.637 35.437 20.7407C35.4149 20.7622 35.2571 20.8122 35.2347 20.8427C35.2216 20.8585 35.1088 20.8377 35.1058 20.8618Z" fill="#231F20"/>
<path fill-rule="evenodd" clip-rule="evenodd" d="M31.8724 13.3832C31.8643 13.4436 31.7821 13.416 31.6566 13.3435C31.6166 13.3204 31.522 13.2244 31.5183 13.2006C31.5112 13.1536 31.5052 13.1069 31.5065 13.0666C31.5065 13.0425 31.6525 12.782 31.7015 12.6877C31.7479 12.5967 31.811 12.5229 31.8794 12.4558C32.0194 12.3198 32.1688 12.1953 32.3171 12.0758C32.3503 12.0496 32.3886 12.0295 32.4309 12.0174C32.5759 11.9744 32.692 11.8939 32.7968 11.7996C32.8142 11.7838 32.8364 11.7741 32.8387 11.7382C32.8448 11.6791 33.1431 11.4579 33.1915 11.4468C33.317 11.4206 33.4298 11.3763 33.5486 11.3387C33.5661 11.3344 33.5744 11.3156 33.6073 11.3337C33.6839 11.376 33.7057 11.3441 33.7393 11.328C33.7859 11.3052 33.8339 11.2844 33.8906 11.274C33.9188 11.2686 33.9655 11.2874 34.0068 11.2988C34.0444 11.3092 34.1051 11.4035 34.1064 11.4183C34.1101 11.4602 34.1585 11.4898 34.1894 11.5247C34.1998 11.5364 34.2135 11.5519 34.2206 11.5623C34.3791 11.7748 33.9848 12.0737 33.7917 12.2554C33.7578 12.2873 33.7325 12.3118 33.7245 12.3215C33.707 12.3426 33.6741 12.3426 33.6459 12.3484C33.6325 12.3524 33.3721 12.5987 33.3603 12.6034C33.2945 12.636 33.2506 12.6984 33.1539 12.6833C33.1348 12.6803 33.1247 12.6911 33.1136 12.7001C33.0183 12.7763 32.9042 12.8233 32.7961 12.8787C32.7417 12.9072 32.6977 12.9502 32.6481 12.9847C32.639 12.9915 32.6246 12.9901 32.6135 12.9935C32.5991 12.9975 32.5826 12.9985 32.5719 13.0076C32.4638 13.1015 32.3211 13.1532 32.2258 13.2623C32.2023 13.2845 32.0328 13.3331 32.0093 13.3647C31.9952 13.3808 31.8757 13.3583 31.8724 13.3832Z" fill="#231F20"/>
<path fill-rule="evenodd" clip-rule="evenodd" d="M27.5257 42.0666C27.5223 42.0647 27.5179 42.0656 27.5156 42.0689C27.3389 42.3204 27.1292 42.5738 26.8507 42.7714C26.745 42.8388 26.6459 42.9197 26.5238 42.962C26.314 43.049 26.0673 43.0711 25.8535 43.0372C25.6367 43.0043 25.4403 42.9305 25.2644 42.8352C25.108 42.7512 24.957 42.665 24.8133 42.572C24.7224 42.5109 24.6291 42.4522 24.5448 42.3827C24.4639 42.3089 24.3958 42.2209 24.3391 42.1246C24.3045 42.0635 24.3683 42.0138 24.471 41.985C24.7018 41.9236 24.9201 42.0576 25.1232 42.1832C25.3487 42.3227 25.5746 42.4399 25.7995 42.5267C26.0055 42.6009 26.1992 42.5442 26.3878 42.4398C26.5936 42.3283 26.7765 42.1434 26.9343 41.9242C27.0333 41.791 27.1216 41.6426 27.2061 41.4919C27.3313 41.2603 27.4579 41.0213 27.5673 40.7743C27.6505 40.582 27.7073 40.3759 27.7982 40.1795C27.8187 40.1362 27.8341 40.0909 27.858 40.049C27.956 39.8979 28.0349 39.8798 28.1762 39.9379C28.2067 39.9499 28.2366 39.9583 28.2607 39.9704C28.3339 40.0053 28.4034 40.1406 28.3752 40.2577C28.296 40.6092 28.1493 40.9374 27.9738 41.2848C27.8465 41.5406 27.7031 41.8016 27.536 42.0641C27.5338 42.0675 27.5293 42.0686 27.5257 42.0666Z" fill="#231F20"/>
<path fill-rule="evenodd" clip-rule="evenodd" d="M22.9902 9.57788C23.0275 9.63058 22.9546 9.67858 22.8234 9.72255C22.7814 9.73664 22.6536 9.73866 22.6338 9.72422C22.5962 9.69603 22.5582 9.66783 22.5304 9.63897C22.5153 9.62051 22.4126 9.33722 22.3632 9.24425C22.3186 9.15329 22.2951 9.06166 22.2756 8.96969C22.2367 8.78307 22.1793 8.60015 22.1467 8.41487C22.1384 8.37392 22.1394 8.33163 22.1467 8.28833C22.1739 8.13897 22.1484 7.99632 22.1004 7.85803C22.0924 7.83487 22.0917 7.8097 22.0581 7.79258C22.0451 7.78637 22.0302 7.76215 22.0153 7.7277C21.9057 7.47445 21.9591 7.18961 21.994 6.91588C21.9964 6.89641 21.9819 6.87963 22.0108 6.85546C22.0779 6.79874 22.0541 6.76349 22.0588 6.72087C22.0598 6.70594 22.0608 6.691 22.062 6.67597C22.069 6.58584 22.1162 6.50874 22.1702 6.43624C22.1937 6.40469 22.2619 6.40133 22.2746 6.40704C22.3058 6.42516 22.3377 6.39596 22.3666 6.38623C22.3767 6.38287 22.3898 6.37851 22.3991 6.3775C22.4147 6.37454 22.4959 6.42667 22.578 6.48737C22.7142 6.58802 22.8017 6.74169 22.8697 6.89674C22.9221 7.0159 22.9791 7.14076 22.9939 7.1656C23.0252 7.2164 23.0048 7.2829 23.0239 7.33942C23.0624 7.45377 23.1261 7.6431 23.1258 7.65497C23.1295 7.73619 23.1701 7.81239 23.1121 7.90402C23.101 7.92214 23.107 7.93758 23.1107 7.95369C23.1403 8.08996 23.1302 8.23295 23.1278 8.37325C23.1265 8.44508 23.1426 8.51489 23.1429 8.58638C23.1433 8.59914 23.1335 8.6129 23.1295 8.62633C23.1245 8.64311 23.1161 8.66023 23.1171 8.67634C23.1288 8.84382 23.0966 9.01433 23.1218 9.17947C23.1272 9.21773 23.056 9.40469 23.0651 9.44765C23.0694 9.47249 22.9744 9.55707 22.9902 9.57788Z" fill="#231F20"/>
<path fill-rule="evenodd" clip-rule="evenodd" d="M12.1223 10.1669C12.0508 10.1575 12.0874 10.0618 12.1921 9.92185C12.2253 9.87721 12.3532 9.77115 12.3807 9.76645C12.4341 9.75671 12.4861 9.74765 12.5284 9.74664C12.5532 9.74866 12.7973 9.87822 12.8902 9.90574C12.9768 9.93729 13.0473 9.98495 13.1151 10.037L13.5464 10.3381C13.5786 10.3605 13.6055 10.3904 13.6297 10.426C13.7102 10.5502 13.8257 10.6291 13.9529 10.6901C13.974 10.7002 13.9918 10.7173 14.0261 10.7049C14.0801 10.6854 14.4104 10.8818 14.4439 10.9268C14.5238 11.0375 14.6161 11.1308 14.7041 11.2325C14.7168 11.247 14.7393 11.2477 14.7366 11.2852C14.7302 11.3722 14.7705 11.3809 14.8017 11.4057C14.8447 11.4406 14.886 11.4796 14.9195 11.5303C14.9363 11.5551 14.9363 11.6071 14.9407 11.6514C14.9451 11.6917 14.8732 11.7857 14.8595 11.7924C14.8192 11.8115 14.8078 11.8693 14.7846 11.9126C14.7769 11.927 14.7665 11.9458 14.7588 11.9569C14.741 11.9804 14.3711 11.9982 14.3422 11.9804C14.3389 11.9787 14.2311 11.9351 14.1163 11.8877C14.0016 11.8417 13.8807 11.7941 13.8539 11.787C13.826 11.78 13.8116 11.7501 13.7935 11.7263C13.7857 11.7176 13.4286 11.5799 13.4162 11.5689C13.3538 11.5209 13.2698 11.5027 13.2413 11.402C13.2359 11.3822 13.2202 11.3765 13.2064 11.3695C13.0849 11.3044 12.9859 11.205 12.8842 11.1104C12.8315 11.0627 12.7691 11.0271 12.7123 10.9842C12.7023 10.9764 12.6986 10.9603 12.6912 10.9489C12.6818 10.9348 12.6758 10.9157 12.663 10.9063C12.5287 10.8033 12.427 10.663 12.2857 10.5646C12.2512 10.5428 12.1793 10.3498 12.1421 10.3246C12.1196 10.3102 12.1501 10.1706 12.1223 10.1669Z" fill="#231F20"/>
</g>
<defs>
<filter id="filter0_d_1_1240" x="0" y="0" width="50.7553" height="51.8351" filterUnits="userSpaceOnUse" color-interpolation-filters="sRGB">
<feFlood flood-opacity="0" result="BackgroundImageFix"/>
<feColorMatrix in="SourceAlpha" type="matrix" values="0 0 0 0 0 0 0 0 0 0 0 0 0 0 0 0 0 0 127 0" result="hardAlpha"/>
<feOffset dx="1.07977" dy="2.15955"/>
<feComposite in2="hardAlpha" operator="out"/>
<feColorMatrix type="matrix" values="0 0 0 0 0 0 0 0 0 0 0 0 0 0 0 0 0 0 1 0"/>
<feBlend mode="normal" in2="BackgroundImageFix" result="effect1_dropShadow_1_1240"/>
<feBlend mode="normal" in="SourceGraphic" in2="effect1_dropShadow_1_1240" result="shape"/>
</filter>
</defs>
</svg>
