<svg width="82" height="74" viewBox="0 0 82 74" fill="none" xmlns="http://www.w3.org/2000/svg">
<g filter="url(#filter0_d_1_1259)">
<path d="M34.8593 12.1961V24.3923L28.4961 21.2107C24.9964 19.5138 21.7087 18.0291 21.0724 18.0291C18.6332 18.0291 20.33 21.3167 24.8903 25.3468C28.178 28.2102 29.3446 29.801 28.3901 30.1192C27.5417 30.4373 21.2845 32.1342 14.285 33.8311C1.24039 37.0127 -1.41094 38.3914 0.604072 40.4064C1.34645 41.1487 6.43701 40.8306 17.7847 39.1337C26.6932 37.8611 34.223 37.1187 34.5412 37.4369C34.8593 37.8611 33.0564 41.573 30.6172 45.8151C28.0719 50.0572 25.9509 53.8752 25.7387 54.1933C25.5266 54.6175 26.0569 55.466 26.7993 56.1023C28.0719 57.1628 29.1325 56.6326 32.5262 53.6631C34.8593 51.542 37.1925 49.8451 37.7228 49.8451C38.2531 49.8451 39.3136 53.0267 40.162 56.9507C41.9649 66.0713 43.2376 68.9348 45.5707 68.9348C48.4342 68.9348 48.9645 65.6471 48.116 53.4509C47.6918 47.2998 47.6918 42.4214 48.2221 42.4214C48.7523 42.4214 52.9945 44.1182 57.6608 46.1333C66.8875 50.1633 69.857 50.6936 69.857 48.3604C69.857 46.2393 68.1601 44.7546 59.994 39.1337C56.07 36.5884 52.8884 34.1492 52.8884 33.8311C52.8884 33.5129 58.2972 31.71 64.8725 29.801C76.6444 26.4073 81.5229 24.1802 81.5229 22.2712C81.5229 20.6804 74.8415 20.9986 64.2362 22.9075C59.1456 23.862 54.5853 24.3923 54.2671 23.9681C53.949 23.6499 54.6913 20.8925 55.964 17.923C60.7364 6.3632 57.7669 5.30267 50.3432 16.0141C47.5858 20.1502 44.8284 23.1196 44.4042 22.5894C43.9799 22.1652 42.8134 17.923 41.7528 13.2567C39.6317 3.28765 38.2531 -7.62939e-06 36.238 -7.62939e-06C35.1775 -7.62939e-06 34.8593 2.75738 34.8593 12.1961Z" fill="#FF6258"/>
<path d="M35.6692 24.3923V25.7026L34.4972 25.1166L28.1382 21.9372C26.3942 21.0916 24.7103 20.3025 23.387 19.726C22.7237 19.437 22.1605 19.2057 21.7301 19.048C21.5143 18.969 21.3421 18.9122 21.2132 18.8763C21.1043 18.846 21.0588 18.84 21.0571 18.839C20.9005 18.8403 20.8117 18.861 20.7686 18.8757C20.7628 18.9749 20.7927 19.2601 21.075 19.8031C21.6951 20.9955 23.1698 22.7453 25.4244 24.7381C27.0714 26.1727 28.2438 27.3355 28.8841 28.2086C29.1884 28.6236 29.4616 29.0886 29.5131 29.5525C29.5419 29.8114 29.5059 30.1141 29.3224 30.3894C29.1458 30.6543 28.8935 30.8023 28.6615 30.8823C28.17 31.0636 26.3533 31.5764 23.8521 32.2408C21.3014 32.9183 17.9818 33.7681 14.4763 34.618C7.93281 36.2139 4.09993 37.3355 2.15176 38.2843C1.67269 38.5176 1.3411 38.725 1.12177 38.9051C0.900065 39.0872 0.835206 39.2068 0.817828 39.2544C0.809228 39.2779 0.801161 39.3024 0.830089 39.3746C0.866373 39.4651 0.955421 39.6071 1.14705 39.8037C1.16597 39.812 1.20961 39.8293 1.28939 39.8495C1.45433 39.8914 1.7035 39.9287 2.05714 39.9511C2.76232 39.9958 3.7808 39.9755 5.1597 39.877C7.91138 39.6804 11.9959 39.1805 17.665 38.3328L17.6702 38.332C22.1329 37.6945 26.2539 37.1892 29.3034 36.883C30.8265 36.73 32.0913 36.6257 33.0009 36.58C33.4532 36.5573 33.8335 36.5481 34.1197 36.5568C34.2603 36.561 34.4004 36.5701 34.5239 36.5895C34.5849 36.599 34.6631 36.6143 34.7447 36.6413C34.8064 36.6617 34.9688 36.7192 35.1138 36.8642L35.1545 36.9049L35.189 36.951C35.3426 37.1557 35.3754 37.3743 35.3841 37.4966C35.3938 37.6318 35.381 37.7618 35.364 37.8703C35.3297 38.0886 35.2587 38.3361 35.1714 38.5909C34.9944 39.1074 34.7077 39.7755 34.3451 40.5409C33.6168 42.0784 32.545 44.087 31.3193 46.2188L31.3155 46.2253L31.3116 46.2318C30.0428 48.3464 28.8791 50.3564 28.0054 51.8788C27.7387 52.3435 27.4958 52.7687 27.2839 53.1395C26.9326 53.7542 26.6666 54.2197 26.5191 54.4686C26.5355 54.5147 26.5643 54.58 26.6125 54.6636C26.7562 54.9126 27.0079 55.2137 27.322 55.4837C27.5724 55.6916 27.7446 55.7646 27.8817 55.7865C28.0159 55.808 28.2136 55.796 28.5427 55.652C29.2545 55.3406 30.2716 54.5594 31.9872 53.0586C33.1695 51.9841 34.3559 51.0129 35.3221 50.3053C35.8045 49.952 36.2438 49.6557 36.6074 49.4438C36.7883 49.3383 36.9644 49.2455 37.1266 49.1767C37.2636 49.1186 37.4845 49.0353 37.7228 49.0353C38.1726 49.0353 38.4573 49.3432 38.5591 49.4615C38.6993 49.6245 38.8209 49.8266 38.9266 50.0295C39.1418 50.4429 39.3661 51.008 39.5898 51.6656C40.0403 52.9898 40.5251 54.7981 40.9536 56.7796L40.9551 56.7866L40.9565 56.7937C41.8591 61.3601 42.6138 64.2701 43.406 66.0306C43.8001 66.9064 44.1748 67.43 44.5243 67.7321C44.8491 68.0127 45.177 68.1249 45.5707 68.1249C46.1126 68.1249 46.4375 67.9798 46.6879 67.6954C46.9776 67.3663 47.2529 66.7543 47.4362 65.6355C47.8028 63.398 47.7336 59.6225 47.3082 53.5071L47.3081 53.5067C47.0952 50.42 46.9879 47.6405 47.0013 45.6241C47.008 44.6207 47.0446 43.7815 47.1184 43.1811C47.1543 42.8883 47.2041 42.6066 47.2819 42.3801C47.3194 42.271 47.3815 42.1192 47.4902 41.9798C47.5996 41.8394 47.8407 41.6116 48.2221 41.6116C48.42 41.6116 48.6519 41.674 48.8113 41.7197C49.0086 41.7761 49.2524 41.8559 49.5316 41.9535C50.0917 42.1493 50.829 42.4289 51.6882 42.7686C53.4085 43.4487 55.6438 44.3802 57.9819 45.3898L57.985 45.3911C62.6112 47.4118 65.5757 48.5111 67.3638 48.8363C68.2804 49.0029 68.7098 48.9292 68.881 48.8419L68.8833 48.8408C68.9403 48.8118 69.0472 48.7575 69.0472 48.3604C69.0472 47.9548 68.9701 47.5994 68.7534 47.2023C68.5259 46.7853 68.1286 46.294 67.4374 45.6535C66.0452 44.3634 63.6354 42.6234 59.544 39.8071C57.572 38.5277 55.7836 37.2732 54.4828 36.2943C53.8329 35.8052 53.2954 35.3779 52.915 35.0466C52.727 34.8828 52.5624 34.7296 52.4389 34.5964C52.3786 34.5313 52.3112 34.4531 52.2538 34.368C52.225 34.3252 52.1879 34.2651 52.1558 34.1918C52.1272 34.1265 52.0786 33.9976 52.0786 33.8311C52.0786 33.5445 52.2217 33.3524 52.2765 33.2852C52.3444 33.2019 52.4165 33.143 52.4626 33.1082C52.5577 33.0363 52.666 32.9752 52.7604 32.9261C52.9572 32.824 53.2237 32.7082 53.5359 32.5835C54.1669 32.3315 55.0654 32.0109 56.1572 31.6448C58.345 30.9111 61.3521 29.9798 64.6467 29.0233L64.6481 29.0229C70.529 27.3275 74.6437 25.9355 77.2779 24.7417C78.599 24.143 79.501 23.6145 80.0606 23.1517C80.4902 22.7965 80.6417 22.5449 80.6911 22.393C80.594 22.3438 80.4235 22.2809 80.149 22.2241C79.4558 22.0805 78.3688 22.0272 76.8887 22.0862C73.9487 22.2032 69.6707 22.7522 64.3826 23.704C61.8249 24.1835 59.392 24.5582 57.5501 24.7598C56.632 24.8604 55.8421 24.92 55.2504 24.9254C54.9581 24.928 54.686 24.9178 54.4604 24.8847C54.3487 24.8683 54.2205 24.8424 54.0958 24.7965C53.9983 24.7606 53.81 24.6799 53.6563 24.5002C53.5354 24.364 53.4761 24.2178 53.4453 24.117C53.4098 24.0007 53.395 23.888 53.3886 23.7942C53.3758 23.6076 53.3903 23.4033 53.4158 23.2041C53.4675 22.7998 53.5814 22.2907 53.7386 21.7235C54.0545 20.5836 54.5705 19.1193 55.2175 17.6091C56.401 14.7416 57.0842 12.5721 57.3457 11.1C57.4779 10.356 57.4908 9.85091 57.4409 9.54504C57.4308 9.48314 57.4199 9.43722 57.4099 9.40377C57.3411 9.42175 57.223 9.4642 57.043 9.56668C56.6771 9.77504 56.1928 10.1551 55.592 10.7455C54.3971 11.9198 52.854 13.8134 51.0128 16.4696C49.6189 18.5598 48.2172 20.3679 47.0973 21.597C46.5421 22.2065 46.0302 22.7024 45.6064 23.0173C45.4028 23.1686 45.1634 23.3211 44.913 23.4006C44.6866 23.4725 44.1692 23.5561 43.7987 23.1276C43.6457 22.9598 43.5399 22.738 43.4734 22.5903C43.3853 22.3945 43.2921 22.1514 43.1957 21.8759C43.0021 21.3227 42.7781 20.5885 42.5375 19.7331C42.0555 18.0194 41.4954 15.7783 40.9631 13.4361L40.9631 13.4362L40.9607 13.4252C39.8996 8.43808 39.0375 5.1919 38.2081 3.20142C37.7929 2.20483 37.4118 1.58887 37.0675 1.23051C36.7981 0.950073 36.57 0.844131 36.3585 0.817245C36.3466 0.839371 36.3325 0.868103 36.3162 0.904968C36.1893 1.19292 36.06 1.73003 35.9557 2.64984C35.7495 4.46649 35.6692 7.47071 35.6692 12.1961V24.3923ZM26.5007 54.4005C26.5007 54.4005 26.5007 54.4017 26.5011 54.404C26.5009 54.4017 26.5008 54.4005 26.5007 54.4005ZM57.3756 9.32413C57.3753 9.32468 57.3777 9.32899 57.3835 9.33532C57.3789 9.32675 57.3759 9.32359 57.3756 9.32413ZM36.401 0.751228C36.4009 0.750877 36.3987 0.752953 36.3945 0.75843C36.3989 0.754318 36.401 0.751579 36.401 0.751228Z" stroke="black" stroke-width="1.61966"/>
</g>
<defs>
<filter id="filter0_d_1_1259" x="0" y="0" width="81.5229" height="73.1267" filterUnits="userSpaceOnUse" color-interpolation-filters="sRGB">
<feFlood flood-opacity="0" result="BackgroundImageFix"/>
<feColorMatrix in="SourceAlpha" type="matrix" values="0 0 0 0 0 0 0 0 0 0 0 0 0 0 0 0 0 0 127 0" result="hardAlpha"/>
<feOffset dy="4.19199"/>
<feComposite in2="hardAlpha" operator="out"/>
<feColorMatrix type="matrix" values="0 0 0 0 0.745098 0 0 0 0 0.74902 0 0 0 0 0.705882 0 0 0 1 0"/>
<feBlend mode="normal" in2="BackgroundImageFix" result="effect1_dropShadow_1_1259"/>
<feBlend mode="normal" in="SourceGraphic" in2="effect1_dropShadow_1_1259" result="shape"/>
</filter>
</defs>
</svg>
