<svg width="305" height="319" viewBox="0 0 305 319" fill="none" xmlns="http://www.w3.org/2000/svg">
<g filter="url(#filter0_d_1_1232)">
<rect x="15.9998" y="27" width="276.422" height="276.422" fill="white"/>
<path d="M16.6668 19.9814C16.6668 50.7834 16.995 63.1619 16.995 95.9195M16.995 95.9195C16.995 128.677 16.9443 188.381 16.6668 228.509C16.3894 268.636 16.1741 307.694 16.1741 307.694C16.1741 313.362 15.5672 306.673 15.6114 303.658C15.6668 299.888 16.1978 192.635 16.1978 183.272C16.1978 173.909 16.6668 126.247 16.995 95.9195Z" stroke="black" stroke-width="3.23932" stroke-miterlimit="10" stroke-linecap="round" stroke-linejoin="round"/>
<path d="M246.421 303.276C291.472 303.276 285.18 303.276 299.982 303.276C299.727 303.424 297.432 303.988 296.485 304.102C295.301 304.245 264.242 304.167 257.613 304.167C234.922 304.167 132.416 303.634 125.707 303.634M246.421 303.276C246.421 303.276 137.764 304.167 120.434 304.167C103.104 304.167 107.203 304.191 70.6179 304.167C43.266 304.149 10.5594 304.167 8.35848 304.167C6.15755 304.167 6.96967 303.099 6.96967 303.099C22.354 303.634 49.1286 303.634 84.2929 303.634C96.4101 303.634 110.583 303.634 125.707 303.634M246.421 303.276C213.487 303.276 166.811 303.634 125.707 303.634" stroke="black" stroke-width="3.23932" stroke-miterlimit="10" stroke-linecap="round" stroke-linejoin="round"/>
<path d="M292.124 166.114C292.124 201.959 292.854 224.512 292.854 247.949C292.854 271.387 292.481 311.092 292.481 311.092C292.481 311.092 291.622 312.765 291.622 309.496C291.622 306.226 292.184 282.982 292.124 249.577C292.063 216.172 292.066 181.168 292.124 166.114ZM292.124 166.114C292.123 149.216 291.733 114.699 291.756 95.4921C291.782 73.9543 291.756 42.938 291.756 22.141" stroke="black" stroke-width="3.23932" stroke-miterlimit="10" stroke-linecap="round" stroke-linejoin="round"/>
<path d="M12.762 27.4655C28.5372 27.4655 42.3008 27.4655 50.416 27.4655M50.416 27.4655C58.5311 27.4655 94.5621 27.6228 109.819 27.6228M50.416 27.4655C50.416 27.4655 68.0141 26.9755 78.3319 26.9755C88.6497 26.9755 109.819 27.6228 109.819 27.6228M302.681 27.6228C286.535 27.6228 294 27.4655 277.963 27.4655C268.822 27.4655 257.639 27.7278 241.608 27.6228M152.762 26.9755C163.857 26.9907 221.847 27.4935 241.608 27.6228M152.762 26.9755C141.288 26.9598 125.075 27.6228 109.819 27.6228M152.762 26.9755C152.762 26.9755 180.582 26.9755 196.163 26.9755M241.608 27.6228C241.608 27.6228 211.744 26.9755 196.163 26.9755M109.819 27.6228C119.17 27.6228 140.85 27.6228 152.762 27.6228C164.674 27.6228 186.66 27.1913 196.163 26.9755" stroke="black" stroke-width="3.23932" stroke-miterlimit="10" stroke-linecap="round" stroke-linejoin="round"/>
<path d="M278.924 56.3588C278.924 56.3588 280.274 51.3987 280.303 45.3768C280.351 35.6577 277.112 25.4411 277.443 15.7275C277.662 9.32244 279.067 0.54538 279.067 0.54538" stroke="black" stroke-width="3.77921"/>
<circle cx="120.738" cy="44.8963" r="5.39887" fill="black"/>
<circle cx="187.144" cy="44.8963" r="5.39887" fill="black"/>
</g>
<defs>
<filter id="filter0_d_1_1232" x="0.34439" y="0.246948" width="303.956" height="318.292" filterUnits="userSpaceOnUse" color-interpolation-filters="sRGB">
<feFlood flood-opacity="0" result="BackgroundImageFix"/>
<feColorMatrix in="SourceAlpha" type="matrix" values="0 0 0 0 0 0 0 0 0 0 0 0 0 0 0 0 0 0 127 0" result="hardAlpha"/>
<feOffset dx="-4.85898" dy="5.39887"/>
<feComposite in2="hardAlpha" operator="out"/>
<feColorMatrix type="matrix" values="0 0 0 0 0 0 0 0 0 0 0 0 0 0 0 0 0 0 0.44 0"/>
<feBlend mode="normal" in2="BackgroundImageFix" result="effect1_dropShadow_1_1232"/>
<feBlend mode="normal" in="SourceGraphic" in2="effect1_dropShadow_1_1232" result="shape"/>
</filter>
</defs>
</svg>
