<svg width="100" height="100" viewBox="0 0 100 100" fill="none" xmlns="http://www.w3.org/2000/svg">
<g clip-path="url(#clip0_1_1267)">
<g filter="url(#filter0_d_1_1267)">
<path d="M27.7295 41.0342L27.5551 40.5335C28.1094 40.213 28.5849 39.9343 28.8349 39.786C28.835 39.7859 28.8351 39.7859 28.8352 39.7858L28.9729 40.018L27.7295 41.0342ZM27.7295 41.0342C35.6561 39.8675 46.939 41.5724 56.1829 46.2989L56.3058 46.0586M27.7295 41.0342L56.3058 46.0586M55.7444 47.155C66.267 52.5347 74.1011 61.9092 70.7005 75.4864M55.7444 47.155L70.7005 75.4864M55.7444 47.155C45.1286 41.7274 31.765 40.3244 24.186 42.8287L55.7444 47.155ZM70.7005 75.4864C70.6185 75.8163 70.8193 76.151 71.1482 76.2341C71.4781 76.3161 71.8128 76.1153 71.8948 75.7854C75.4576 61.5594 67.3294 51.6946 56.3058 46.0586M70.7005 75.4864L70.9625 75.5515C70.9625 75.5515 70.9624 75.5517 70.9624 75.5517C70.9165 75.7372 71.0295 75.9253 71.2138 75.9722C71.3993 76.0181 71.5869 75.9049 71.6328 75.7203L71.6329 75.7198C73.3973 68.6745 72.2656 62.7256 69.3386 57.8395C66.4074 52.9464 61.6647 49.1016 56.183 46.299L56.3058 46.0586M28.4803 39.192C28.8434 38.9757 29.3617 38.7056 29.9813 38.3839L30.0397 38.3536C30.6426 38.0406 31.3319 37.6827 32.0466 37.2873C33.5188 36.4726 35.1163 35.489 36.307 34.3898C36.9804 33.7689 37.5536 33.0919 37.8288 32.3657C38.111 31.6212 38.0741 30.8374 37.5523 30.0508L28.4803 39.192ZM28.4803 39.192C28.4802 39.192 28.4802 39.192 28.4801 39.1921L28.342 38.9601L28.4803 39.192ZM14.8624 36.3768L14.8625 36.3769C14.9951 36.5131 15.2136 36.5166 15.3508 36.3829L15.351 36.3828C16.4554 35.309 19.1088 33.5851 22.2202 32.0266C25.3359 30.4659 28.9543 29.0491 32.001 28.6128L32.001 28.6128C33.1899 28.4428 34.3087 28.4086 35.2618 28.6098C36.2202 28.8122 37.0257 29.2565 37.5522 30.0507L14.8624 36.3768ZM14.8624 36.3768C14.7291 36.2399 14.7319 36.0214 14.8696 35.8873L14.8624 36.3768Z" fill="black" stroke="black" stroke-width="0.539887"/>
<path d="M71.4598 75.7153L71.1345 75.0214C70.9938 74.7212 70.856 74.4218 70.7188 74.1235C70.2501 73.105 69.7878 72.1002 69.2371 71.1292L69.2371 71.1291C67.3402 67.7829 64.664 64.7149 61.4228 62.6482C61.2606 62.5456 61.0472 62.5935 60.9445 62.7536C60.8419 62.9158 60.8899 63.1292 61.0501 63.2319C64.2133 65.2461 66.8014 68.2355 68.6347 71.4702L68.6348 71.4703C69.1902 72.4507 69.6617 73.4771 70.1282 74.4927C70.3563 74.9893 70.5832 75.4833 70.8182 75.9681C70.8184 75.9684 70.8185 75.9687 70.8187 75.969L70.5758 76.0868C70.5831 76.1015 70.6006 76.1392 70.6247 76.1912C70.7224 76.4016 70.9285 76.8459 71.0093 76.944L71.4598 75.7153ZM71.4598 75.7153L71.6412 74.9707C71.9331 73.7722 72.3386 72.1224 72.4257 71.837L72.426 71.836C73.7505 67.4349 75.6447 63.4994 77.6205 59.3945C77.8722 58.8716 78.1252 58.346 78.3785 57.8164C78.4612 57.6437 78.6678 57.5711 78.8387 57.653C79.0099 57.735 79.0838 57.9422 79.0019 58.1159L71.4598 75.7153ZM72.0807 76.2208C71.9709 76.5448 71.8525 76.7283 71.7983 76.7848L73.087 72.0362C73.087 72.0362 73.087 72.0362 73.087 72.0362C73.0397 72.1933 72.9473 72.6208 72.8336 73.1473C72.7823 73.3847 72.7267 73.6423 72.6689 73.9042C72.4787 74.7659 72.2619 75.6911 72.0809 76.22L72.0807 76.2208Z" fill="black" stroke="black" stroke-width="0.539887"/>
</g>
</g>
<defs>
<filter id="filter0_d_1_1267" x="13.9545" y="27.5225" width="65.3509" height="51.8253" filterUnits="userSpaceOnUse" color-interpolation-filters="sRGB">
<feFlood flood-opacity="0" result="BackgroundImageFix"/>
<feColorMatrix in="SourceAlpha" type="matrix" values="0 0 0 0 0 0 0 0 0 0 0 0 0 0 0 0 0 0 127 0" result="hardAlpha"/>
<feOffset dx="-0.539887" dy="2.15955"/>
<feComposite in2="hardAlpha" operator="out"/>
<feColorMatrix type="matrix" values="0 0 0 0 0 0 0 0 0 0 0 0 0 0 0 0 0 0 1 0"/>
<feBlend mode="normal" in2="BackgroundImageFix" result="effect1_dropShadow_1_1267"/>
<feBlend mode="normal" in="SourceGraphic" in2="effect1_dropShadow_1_1267" result="shape"/>
</filter>
<clipPath id="clip0_1_1267">
<rect width="70.1852" height="70.1852" fill="white" transform="translate(47.53) rotate(42.6258)"/>
</clipPath>
</defs>
</svg>
