<svg width="85" height="96" viewBox="0 0 85 96" fill="none" xmlns="http://www.w3.org/2000/svg">
<g filter="url(#filter0_d_1_919)">
<path d="M-1.4321 16.0814V31.4428L-13.2183 27.4354C-19.7007 25.2982 -25.7902 23.4281 -26.9689 23.4281C-31.4869 23.4281 -28.3439 27.569 -19.8971 32.6449C-13.8076 36.2515 -11.6468 38.2552 -13.4147 38.6559C-14.9862 39.0566 -26.576 41.1939 -39.5408 43.3311C-63.7025 47.3384 -68.6134 49.0749 -64.8811 51.6129C-63.5061 52.5479 -54.0771 52.1472 -33.0584 50.0099C-16.5577 48.407 -2.61071 47.472 -2.0214 47.8727C-1.4321 48.407 -4.77152 53.0822 -9.28956 58.4253C-14.004 63.7684 -17.9328 68.5771 -18.3256 68.9779C-18.7185 69.5122 -17.7363 70.5808 -16.3613 71.3822C-14.004 72.718 -12.0397 72.0501 -5.7537 68.31C-1.4321 65.6384 2.88951 63.5012 3.87169 63.5012C4.85387 63.5012 6.81824 67.5085 8.38973 72.4509C11.7292 83.9385 14.0864 87.545 18.408 87.545C23.7118 87.545 24.694 83.4042 23.1225 68.0428C22.3367 60.2954 22.3367 54.1508 23.3189 54.1508C24.3011 54.1508 32.1586 56.2881 40.8018 58.826C57.8918 63.9019 63.392 64.5698 63.392 61.6311C63.392 58.9596 60.249 57.0895 45.1234 50.0099C37.8552 46.8041 31.9621 43.7318 31.9621 43.3311C31.9621 42.9304 41.9804 40.6596 54.1595 38.2552C75.9639 33.9807 85 31.1756 85 28.7712C85 26.7676 72.6245 27.1683 52.9808 29.5727C43.5519 30.7749 35.1051 31.4428 34.5158 30.9084C33.9265 30.5077 35.3015 27.0347 37.6588 23.2946C46.4984 8.73468 40.9982 7.39891 27.2476 20.8902C22.1403 26.0997 17.0329 29.8398 16.2472 29.1719C15.4614 28.6376 13.3007 23.2946 11.3363 17.4172C7.40755 4.86095 4.85387 0.72007 1.12158 0.72007C-0.842789 0.72007 -1.4321 4.19307 -1.4321 16.0814Z" fill="#F3ABCB"/>
<path d="M-0.432098 31.4428V32.839L-1.754 32.3895L-13.5314 28.3852C-13.5329 28.3847 -13.5344 28.3842 -13.5359 28.3837C-16.7712 27.317 -19.9016 26.3193 -22.3665 25.5891C-23.6005 25.2236 -24.659 24.9277 -25.4764 24.7241C-26.3427 24.5083 -26.8199 24.4281 -26.9689 24.4281C-27.4712 24.4281 -27.784 24.4876 -27.959 24.5529C-27.9866 24.5632 -28.0085 24.5727 -28.0255 24.5809C-28.0204 24.6067 -28.0116 24.6414 -27.9965 24.6862C-27.9324 24.8759 -27.7835 25.1554 -27.5004 25.5256C-26.3458 27.0356 -23.5898 29.259 -19.3847 31.7862C-16.3415 33.5887 -14.1959 35.0377 -13.0294 36.1193C-12.7329 36.3943 -12.4755 36.6674 -12.2776 36.9365C-12.0892 37.1927 -11.8998 37.5185 -11.8385 37.8935C-11.7677 38.3268 -11.8795 38.7814 -12.2218 39.1306C-12.5095 39.424 -12.8788 39.5583 -13.1801 39.6281C-14.8501 40.0498 -26.466 42.1892 -39.3781 44.3178C-51.48 46.3249 -58.6643 47.7494 -62.3568 48.9723C-63.2738 49.276 -63.9346 49.5544 -64.3866 49.8068C-64.7326 50.0001 -64.8961 50.1453 -64.9673 50.2247C-64.8859 50.3385 -64.6978 50.5282 -64.3188 50.7859C-64.3214 50.7842 -64.3203 50.7846 -64.3148 50.7869C-64.2874 50.7984 -64.1501 50.8561 -63.8108 50.9147C-63.4392 50.9789 -62.923 51.029 -62.2414 51.0583C-60.8809 51.1169 -58.9518 51.0894 -56.3846 50.9647C-51.2554 50.7155 -43.6648 50.0833 -33.1595 49.0151L-33.1551 49.0146C-24.8975 48.2125 -17.2759 47.5771 -11.6413 47.1923C-8.82535 47 -6.49813 46.8697 -4.83331 46.8128C-4.00298 46.7844 -3.32412 46.7737 -2.8269 46.784C-2.58051 46.789 -2.35981 46.7995 -2.17978 46.8187C-2.09081 46.8282 -1.99216 46.8418 -1.89606 46.8634C-1.83118 46.878 -1.6424 46.9211 -1.45909 47.0458L-1.4014 47.085L-1.34971 47.1319C-1.07579 47.3802 -0.985268 47.692 -0.961739 47.9162C-0.93898 48.1331 -0.969704 48.3332 -1.00484 48.4854C-1.07545 48.7912 -1.21725 49.1225 -1.38007 49.4456C-1.71295 50.1062 -2.24829 50.9535 -2.91969 51.9173C-4.27008 53.8559 -6.25605 56.3866 -8.52596 59.071L-8.53276 59.079L-8.53972 59.0869C-10.8901 61.7507 -13.0456 64.2824 -14.664 66.1999C-15.2034 66.839 -15.6818 67.4083 -16.0887 67.8925C-16.2929 68.1355 -16.4791 68.3571 -16.646 68.5553C-16.913 68.8726 -17.1418 69.1436 -17.3148 69.3446C-17.2943 69.3718 -17.2707 69.4013 -17.2439 69.4329C-16.9719 69.7535 -16.4848 70.1521 -15.863 70.5152C-15.3625 70.7982 -14.9299 70.9492 -14.4852 70.9976C-14.0358 71.0464 -13.5095 70.9974 -12.8159 70.7911C-11.3844 70.3652 -9.42874 69.3328 -6.27216 67.4548C-4.09109 66.1068 -1.90649 64.8911 -0.134521 64.0086C0.75116 63.5675 1.54601 63.2036 2.1926 62.9473C2.5153 62.8193 2.81387 62.7131 3.07611 62.6375C3.31849 62.5675 3.60371 62.5012 3.87169 62.5012C4.32354 62.5012 4.68017 62.722 4.90362 62.8986C5.14437 63.089 5.36515 63.3357 5.56494 63.5966C5.96709 64.1217 6.3865 64.8406 6.80404 65.6752C7.64407 67.3543 8.54627 69.643 9.34272 72.1478L9.3465 72.1597L9.34998 72.1717C11.0205 77.9182 12.4105 81.5569 13.8645 83.7539C14.5808 84.8364 15.2825 85.5208 15.9957 85.9398C16.6992 86.3532 17.4759 86.545 18.408 86.545C19.6139 86.545 20.4196 86.3086 20.9919 85.8666C21.5622 85.4261 22.0464 84.6685 22.3713 83.3202C23.0366 80.5588 22.9166 75.8561 22.1277 68.1446L22.1276 68.1437C21.7327 64.25 21.5327 60.7369 21.5578 58.1817C21.5702 56.9124 21.6383 55.8353 21.7793 55.0543C21.8481 54.6733 21.9461 54.2912 22.1036 53.9793C22.2341 53.7208 22.5954 53.1508 23.3189 53.1508C23.5528 53.1508 23.8752 53.205 24.1887 53.266C24.5336 53.3332 24.9697 53.4301 25.4808 53.5515C26.5043 53.7948 27.8594 54.1441 29.4471 54.571C32.6243 55.4251 36.7572 56.5962 41.0835 57.8665L41.0865 57.8674C49.6409 60.4082 55.2117 61.8192 58.6283 62.2416C60.3614 62.4559 61.3862 62.3928 61.938 62.2016C62.1893 62.1144 62.2789 62.022 62.3131 61.9749C62.3454 61.9304 62.392 61.8394 62.392 61.6311C62.392 60.8588 62.0376 59.9836 59.3967 58.3196C56.7854 56.6742 52.2844 54.4659 44.7096 50.9204C41.0648 49.3125 37.7608 47.7366 35.3616 46.5088C34.163 45.8954 33.1786 45.363 32.4869 44.9533C32.1445 44.7505 31.8529 44.5656 31.638 44.408C31.5341 44.3317 31.419 44.2409 31.3202 44.1412C31.2716 44.0923 31.202 44.0165 31.1384 43.9178C31.0875 43.8386 30.9621 43.6273 30.9621 43.3311C30.9621 43.0604 31.0672 42.8597 31.1418 42.7496C31.2172 42.6386 31.2991 42.5632 31.3507 42.5202C31.4528 42.435 31.5568 42.3778 31.6206 42.345C31.7578 42.2745 31.9221 42.2106 32.0834 42.1536C32.4169 42.0359 32.8845 41.8971 33.4556 41.742C34.605 41.4298 36.2536 41.0297 38.2713 40.5695C42.3107 39.6484 47.8701 38.4775 53.9658 37.2741L53.9671 37.2738C64.8657 35.1373 72.5314 33.3757 77.4619 31.8563C79.9347 31.0942 81.664 30.4094 82.7573 29.7947C83.3052 29.4866 83.643 29.2236 83.8329 29.017C83.8448 29.0041 83.8559 28.9916 83.8662 28.9797C83.6074 28.884 83.2028 28.7854 82.6199 28.7033C81.2375 28.5086 79.1438 28.4438 76.3839 28.5186C70.8817 28.6676 62.914 29.3644 53.1049 30.565C48.3797 31.1674 43.8935 31.6369 40.5077 31.889C38.8171 32.0149 37.3853 32.0877 36.3298 32.0942C35.805 32.0974 35.3495 32.0845 34.9923 32.0488C34.8154 32.0312 34.6365 32.0055 34.4739 31.9648C34.3627 31.937 34.1218 31.8716 33.9045 31.7003C33.5056 31.4003 33.4139 30.957 33.39 30.7201C33.3621 30.4433 33.3946 30.1535 33.444 29.8907C33.5449 29.3549 33.7633 28.6954 34.0563 27.9764C34.6469 26.5271 35.6077 24.6744 36.8081 22.7688C39.0006 19.1567 40.2524 16.4448 40.7274 14.6264C40.9683 13.7043 40.978 13.1263 40.9024 12.8113C40.8683 12.6688 40.8252 12.6156 40.8108 12.6004C40.8005 12.5896 40.7758 12.5655 40.6957 12.5467C40.4925 12.4989 40.0493 12.5164 39.2763 12.8157C38.531 13.1042 37.5955 13.6088 36.4741 14.3582C34.2359 15.8539 31.3659 18.2511 27.9548 21.5973C25.3747 24.2283 22.7853 26.4987 20.7249 28.0365C19.6989 28.8022 18.7742 29.4089 18.0303 29.7848C17.6638 29.97 17.2925 30.1244 16.947 30.199C16.6733 30.2581 16.1118 30.335 15.6426 29.9689C15.3896 29.7829 15.1935 29.5122 15.0572 29.3064C14.8911 29.0553 14.7158 28.7444 14.5355 28.394C14.1736 27.6909 13.7564 26.7606 13.3096 25.6804C12.4144 23.516 11.3751 20.688 10.3878 17.7342L10.3848 17.725L10.3819 17.7158C8.4177 11.4382 6.82744 7.37104 5.3026 4.88251C3.79642 2.42441 2.49413 1.72007 1.12158 1.72007C1.00939 1.72007 0.902954 1.73021 0.732964 1.99245C0.51609 2.32698 0.284866 2.96622 0.0944595 4.10721C-0.282692 6.36729 -0.432098 10.1266 -0.432098 16.0814V31.4428ZM-28.0785 24.613C-28.0783 24.613 -28.0767 24.6118 -28.0742 24.6091C-28.0774 24.6116 -28.0787 24.613 -28.0785 24.613ZM-28.0321 24.5232C-28.0318 24.5209 -28.0317 24.5196 -28.0318 24.5194C-28.0318 24.5192 -28.032 24.5205 -28.0321 24.5232ZM84.1329 29.109C84.1336 29.109 84.1295 29.1052 84.1188 29.098C84.1269 29.1055 84.1322 29.1091 84.1329 29.109Z" stroke="black" stroke-width="2"/>
</g>
<defs>
<filter id="filter0_d_1_919" x="-66" y="0.720093" width="151" height="94.5895" filterUnits="userSpaceOnUse" color-interpolation-filters="sRGB">
<feFlood flood-opacity="0" result="BackgroundImageFix"/>
<feColorMatrix in="SourceAlpha" type="matrix" values="0 0 0 0 0 0 0 0 0 0 0 0 0 0 0 0 0 0 127 0" result="hardAlpha"/>
<feOffset dy="7.76457"/>
<feComposite in2="hardAlpha" operator="out"/>
<feColorMatrix type="matrix" values="0 0 0 0 0.745098 0 0 0 0 0.74902 0 0 0 0 0.705882 0 0 0 1 0"/>
<feBlend mode="normal" in2="BackgroundImageFix" result="effect1_dropShadow_1_919"/>
<feBlend mode="normal" in="SourceGraphic" in2="effect1_dropShadow_1_919" result="shape"/>
</filter>
</defs>
</svg>
